<?xml version="1.0" standalone="no"?><!DOCTYPE svg PUBLIC "-//W3C//DTD SVG 1.1//EN" "http://www.w3.org/Graphics/SVG/1.1/DTD/svg11.dtd"><svg t="1505197117315" class="icon" style="" viewBox="0 0 1025 1024" version="1.1" xmlns="http://www.w3.org/2000/svg" p-id="2337" xmlns:xlink="http://www.w3.org/1999/xlink" width="32.03125" height="32"><defs><style type="text/css"></style></defs><path d="M511.9775008789062 62c-248.51537402343752 0-449.9775008789062 201.46212685546877-449.9775008789062 449.9775008789062 0 248.5171740234375 201.46212685546877 449.9775008789062 449.9775008789062 449.9775008789062 248.5171740234375 0 449.9775008789062-201.46032685546876 449.9775008789062-449.9775008789062C961.9550026367187 263.4621268554688 760.4928757812501 62 511.9775008789062 62zM770.0737958984375 395.25873681640627L479.0499470703125 686.2843856445312c0 0-0.0036 0.0036-0.00899912109375 0.00899912109375-13.41652939453125 13.420129394531251-33.87430634765625 15.515223925781251-49.492124999999994 6.2906853515625-2.8924549804687496-1.7099147460937498-5.61931875-3.8086092773437508-8.10319482421875-6.2906853515625-0.0018-0.0036-0.0054-0.0054-0.0054-0.0054l-167.55722226562503-167.55722226562503c-15.904004589843751-15.904004589843751-15.904004589843751-41.693115234375 0-57.60071982421874 15.904004589843751-15.904004589843751 41.693115234375-15.904004589843751 57.59711982421875 0l138.7658619140625 138.7658619140625 262.2324884765625-262.2324884765625c15.90580458984375-15.904004589843751 41.694915234374996-15.904004589843751 57.598919824218754 0C785.9778013671876 353.5674215820312 785.9778013671876 379.35473222656253 770.0737958984375 395.25873681640627z" fill="#1afa29" p-id="2338"></path></svg>